<svg xmlns="http://www.w3.org/2000/svg" xmlns:xlink="http://www.w3.org/1999/xlink" viewBox="0 0 462.09 549.24"><defs><style>.cls-1,.cls-13,.cls-2{fill:none;}.cls-2{stroke:#29095b;}.cls-13,.cls-2,.cls-7,.cls-8{stroke-linecap:round;stroke-linejoin:round;}.cls-13,.cls-2{stroke-width:4px;}.cls-3{fill:#300a66;}.cls-4{fill:#e551bb;}.cls-5{fill:url(#linear-gradient);}.cls-6{fill:#1b043f;}.cls-7{fill:#1d1a33;}.cls-13,.cls-18,.cls-7,.cls-8{stroke:#0a0314;}.cls-7,.cls-8{stroke-width:5px;}.cls-8{fill:#180535;}.cls-9{fill:#c3ef48;}.cls-10{clip-path:url(#clip-path);}.cls-11{fill:#010307;}.cls-12{fill:#e8f9aa;}.cls-14{clip-path:url(#clip-path-2);}.cls-15{fill:#2d1b96;}.cls-16{fill:#c51fff;}.cls-17,.cls-18{fill:#0a0314;}.cls-18{stroke-miterlimit:10;stroke-width:3px;}.cls-19{fill:#c9f70b;}</style><linearGradient id="linear-gradient" x1="248.92" y1="280.46" x2="248.92" y2="195.84" gradientTransform="translate(87.68 -57.29) rotate(15.52)" gradientUnits="userSpaceOnUse"><stop offset="0" stop-color="#c51fff"/><stop offset="0.07" stop-color="#bc1ef6"/><stop offset="0.19" stop-color="#a31adc"/><stop offset="0.34" stop-color="#7b15b3"/><stop offset="0.51" stop-color="#430d7a"/><stop offset="0.57" stop-color="#300a66"/><stop offset="0.87" stop-color="#300a66"/><stop offset="0.99" stop-color="#1b043f"/></linearGradient><clipPath id="clip-path" transform="translate(-22.95 -17.13)"><path id="SVGID" class="cls-1" d="M262.59,141a31.34,31.34,0,1,1-49.92-32.89h0c10.6-3.24,24.46,0,34.6,6.08A31.33,31.33,0,0,1,262.59,141Z"/></clipPath><clipPath id="clip-path-2" transform="translate(-22.95 -17.13)"><path id="SVGID-2" data-name="SVGID" class="cls-1" d="M315.24,155.61A31.34,31.34,0,1,0,375,153.17s0,0,0,0c-7.41-8.24-21-12.57-32.78-12.63A31.33,31.33,0,0,0,315.24,155.61Z"/></clipPath></defs><title>dinibotkawaii</title><g id="Layer_10" data-name="Layer 10"><path class="cls-2" d="M146.33,508.7c-36.56-13.28-66.74-29-86-42.8" transform="translate(-22.95 -17.13)"/><path class="cls-2" d="M346.15,532.51c-7.86,3.58-21.26,5.73-38.57,6.1-19.27.42-43.38-1.37-70-5.85" transform="translate(-22.95 -17.13)"/><path class="cls-3" d="M249.29,291C191.91,275,137.11,255.27,95,235.32c-22.67-10.73-48.27-24.66-56.92-36.22l-.87,3.12c-1.12,4,9.64,16.77,57.08,38.89C136,260.53,190.5,280,247.91,296s114.18,27.39,159.9,32.24l4.4.45h0c48.53,4.75,63.45-.41,64.54-4.34l.86-3.11c-13.37,5.44-42.49,4.17-67.44,1.68C363.81,318.23,306.67,306.91,249.29,291Z" transform="translate(-22.95 -17.13)"/><path class="cls-3" d="M225.05,374.36c-53.7-14.91-92.75-36.24-111.26-47.63-16.08-9.9-32.45-22.08-39.05-31.58L28.16,462.85c-.19.67.32,2.68,3.1,6.21l22.11-79.57a7.76,7.76,0,0,1,14.95,4.15L44,481.21l.86.69c23.25,18.45,72,46,132.86,62.91,53.09,14.74,97,16.59,118.46,16.37,37-.36,51.16-6.65,51.94-9.47L394.69,384c-10.56,4.73-30.87,6.72-49.75,6.91C323.22,391.15,278.75,389.28,225.05,374.36ZM74.17,372.57a7.76,7.76,0,1,1-15-4.15l1.91-6.9a7.76,7.76,0,0,1,15,4.15Z" transform="translate(-22.95 -17.13)"/><path class="cls-4" d="M246.52,300.94c-57.67-16-112.51-35.6-154.42-55.14l-3.23-1.52-12,43.14c-.78,2.82,8.11,15.51,39.63,34.9,18.27,11.25,56.84,32.32,109.93,47.06s97,16.59,118.45,16.38c37-.37,51.17-6.66,51.95-9.47l11.89-42.81-1.47-.15C361.28,328.46,304.19,317,246.52,300.94Z" transform="translate(-22.95 -17.13)"/><path class="cls-5" d="M394.54,269.85c-31.89-12.88-77.27-27.7-127.79-41.73s-97.05-24.74-131-30.16c-52.53-8.37-55.21-1-55.3-.65s-1.7,8.39,47.35,29.47C161,241.06,206.24,256.41,255.12,270s95.53,23.75,131.37,28.65c52.9,7.23,55.68-.49,55.77-.83S443.86,289.76,394.54,269.85Z" transform="translate(-22.95 -17.13)"/><path class="cls-3" d="M423.23,272.43c-42.33-21-96.67-41.17-153-56.81s-113.3-26.39-160.39-30.24c-52.56-4.3-68.5,2-69.58,5.87s9.49,16.92,57,39.4c41.86,19.82,96.37,39.47,153.47,55.33s113.94,27.14,160,31.74c52.26,5.22,68.06-.58,69.11-4.38S470.47,295.85,423.23,272.43Zm-37.44,31.33c-36.06-4.93-83-15.16-132-28.79s-94.55-29.07-128-43.44C72,208.42,74.6,199,75.45,195.92c1.47-5.26,9.39-11.31,61.1-3.06,34.15,5.44,80.88,16.19,131.58,30.27s96.28,29,128.35,41.92c48.55,19.61,52.22,28.87,50.76,34.14C446.38,302.28,443.77,311.68,385.79,303.76Z" transform="translate(-22.95 -17.13)"/><path class="cls-6" d="M396.48,265.05c-5-2-10.25-4-15.83-6.13C350.18,247.51,311,235,268.13,223.13s-82.63-21.37-114.56-27.32c-6-1.1-11.65-2.09-17-2.95-51.71-8.24-59.63-2.2-61.1,3.06-.85,3.09-3.47,12.5,50.3,35.61,7.49,3.21,15.57,6.49,24.17,9.78,29.8,11.41,65.71,23.07,103.82,33.66,39.14,10.87,76.87,19.56,108.83,25.15,8.13,1.42,15.9,2.63,23.22,3.63,58,7.94,60.59-1.47,61.45-4.56C448.7,293.92,445,284.66,396.48,265.05Zm-10,33.58q-9.24-1.26-19.37-3c-32.55-5.52-71.51-14.43-112-25.68-38.8-10.78-75.3-22.66-105.32-34.25-7.8-3-15.16-6-22-8.95-49.05-21.09-47.44-29.14-47.35-29.47s2.77-7.71,55.29.66q8,1.28,17,2.95c31.77,5.91,71.5,15.38,114.05,27.2,43,11.94,82.28,24.45,112.7,35.87,5.31,2,10.36,3.94,15.1,5.86,49.31,19.91,47.8,27.63,47.71,27.95S439.39,305.86,386.49,298.63Z" transform="translate(-22.95 -17.13)"/><path class="cls-6" d="M425.53,267.79c-42.62-21.13-97.28-41.43-153.93-57.16s-114-26.53-161.35-30.41c-25.24-2.06-67.33-3.63-74.25,8a2.51,2.51,0,0,0-.54,1l-3.24,11.66C29.07,212.19,57,228.83,84.13,242l-61,219.46c-.87,3.16.86,7.19,5.3,12.33A98.55,98.55,0,0,0,41.63,486c23.63,18.76,73.09,46.73,134.7,63.84,53.7,14.92,98.16,16.78,119.89,16.57,25.79-.26,54.27-3.88,56.88-13.26L414,334c30.57,2.86,64.58,3.31,67.8-8.31l3-10.76s0-.07,0-.1,0-.07,0-.11C488.53,301.3,449.27,279.56,425.53,267.79ZM348.11,551.71c-.78,2.82-14.94,9.11-51.94,9.47-21.46.22-65.37-1.63-118.46-16.37C116.85,527.9,68.1,500.35,44.85,481.9l-.86-.69,24.33-87.57a7.76,7.76,0,0,0-14.95-4.15L31.26,469.06c-2.78-3.53-3.29-5.54-3.1-6.21l46.58-167.7c6.6,9.5,23,21.68,39.05,31.58,18.51,11.39,57.56,32.72,111.26,47.63s98.17,16.79,119.89,16.57c18.88-.19,39.19-2.18,49.75-6.91Zm48.73-175.42c-.78,2.81-14.95,9.1-51.95,9.47-21.45.21-65.37-1.64-118.45-16.38s-91.66-35.81-109.93-47.06C85,302.93,76.1,290.24,76.88,287.42l12-43.14,3.23,1.52c41.91,19.54,96.75,39.12,154.42,55.14s114.76,27.52,160.74,32.39l1.47.15Zm79.93-52c-1.09,3.93-16,9.09-64.54,4.34h0l-4.4-.45c-45.72-4.85-102.5-16.3-159.9-32.24S136,260.53,94.28,241.11C46.84,219,36.08,206.25,37.2,202.22l.87-3.12c8.65,11.56,34.25,25.49,56.92,36.22,42.12,20,96.92,39.71,154.3,55.65s114.52,27.26,160.9,31.9c24.95,2.49,54.07,3.76,67.44-1.68Zm-66.07-6.58c-46.09-4.6-102.92-15.87-160-31.74S139.06,250.47,97.2,230.65c-47.46-22.48-58-35.6-56.95-39.4s17-10.17,69.58-5.87c47.09,3.85,104.05,14.59,160.39,30.24s110.68,35.82,153,56.81c47.24,23.42,57.67,37,56.58,40.91S463,322.94,410.7,317.72Z" transform="translate(-22.95 -17.13)"/><path class="cls-6" d="M70.69,356.12a7.76,7.76,0,0,0-9.56,5.4l-1.91,6.9a7.76,7.76,0,1,0,15,4.15l1.92-6.9A7.76,7.76,0,0,0,70.69,356.12Z" transform="translate(-22.95 -17.13)"/><path class="cls-1" d="M408.73,333.49l-11.89,42.8c-.78,2.82-14.95,9.1-51.94,9.47-21.46.21-65.38-1.64-118.46-16.38s-91.67-35.81-109.94-47.06c-31.5-19.39-40.4-32.08-39.62-34.9l12-43.14c1.09.5,2.17,1,3.23,1.52,18.6,8.66,39.73,17.34,62.53,25.71,28.6,10.5,59.81,20.51,91.9,29.42,31.41,8.72,62.65,16.11,92,21.82,24.55,4.77,47.8,8.36,68.74,10.59Z" transform="translate(-22.95 -17.13)"/><path class="cls-7" d="M379.45,264c.41-1.66.8-3.36,1.2-5.07,2.14-9.25,4.19-19,6.76-28.22,21.29-76.68,19-168.39-4.49-174.92-12.37-3.43-28.29,10.7-43.7,36.05A150.57,150.57,0,0,0,273,74.51c0-30.25-6.34-51-18.86-54.49-23.5-6.53-72.76,70.86-94.05,147.54q-4.14,14.9-6.53,28.25c-.3,1.72-.59,3.42-.87,5.11a212.68,212.68,0,0,0-2.9,34.81c0,1.9,0,3.77.12,5.58,29.8,11.41,65.71,23.07,103.82,33.66,39.14,10.87,76.87,19.56,108.83,25.15a22.55,22.55,0,0,0,4.55-4.46C372.77,288.44,376.31,276.91,379.45,264Z" transform="translate(-22.95 -17.13)"/><path class="cls-7" d="M209.14,264.4a46.41,46.41,0,0,1-4.68,9.41,43.43,43.43,0,0,1-17.2,15.51,27.68,27.68,0,0,1-41.32-5.08c-10-8.53-15.95-22.11-15.15-36.83.07-1.42.21-2.84.41-4.27a51.38,51.38,0,0,1,1.35-6.44,47.32,47.32,0,0,1,6.88-14.48,42.94,42.94,0,0,1,17.79-14.68,37.68,37.68,0,0,1,20.41-2.83c20.23,2.86,34.64,21.61,34.46,43.35h0a49,49,0,0,1-3,16.33Z" transform="translate(-22.95 -17.13)"/><path class="cls-7" d="M376.38,304.53a50.62,50.62,0,0,1-2.14,6.12q-.87,2-1.89,4c-6.94,13-19,21.51-31.94,23.64a27.68,27.68,0,0,1-38-16.95,43.42,43.42,0,0,1-6.74-22.13,46,46,0,0,1,.85-10.47,48.48,48.48,0,0,1,3-9.79,49.52,49.52,0,0,1,2.89-5.73c11-18.75,33.08-27.39,51.89-19.41a38.24,38.24,0,0,1,19.07,18A43.68,43.68,0,0,1,378,288.58,47.19,47.19,0,0,1,376.38,304.53Z" transform="translate(-22.95 -17.13)"/><path class="cls-8" d="M350.9,327.29a21.76,21.76,0,0,1-10.49,11" transform="translate(-22.95 -17.13)"/><path class="cls-8" d="M302.39,321.3a21.59,21.59,0,0,1,.88-14.23" transform="translate(-22.95 -17.13)"/><path class="cls-8" d="M146,284.23a21.7,21.7,0,0,1-3.34-14.79" transform="translate(-22.95 -17.13)"/><path class="cls-8" d="M193.85,276.67a21.59,21.59,0,0,1-6.59,12.65" transform="translate(-22.95 -17.13)"/><path class="cls-9" d="M262.59,141a31.34,31.34,0,1,1-49.92-32.89h0c10.6-3.24,24.46,0,34.6,6.08A31.33,31.33,0,0,1,262.59,141Z" transform="translate(-22.95 -17.13)"/><g class="cls-10"><circle class="cls-11" cx="210.21" cy="112.69" r="25.97"/><circle class="cls-12" cx="220.58" cy="106.74" r="6.72"/><circle class="cls-12" cx="212.14" cy="113.69" r="2.24"/></g><path class="cls-9" d="M211.44,134a.92.92,0,0,1-.64-.69.9.9,0,0,1,.71-1l9.83-1.92a.9.9,0,1,1,.34,1.76L211.85,134A.94.94,0,0,1,211.44,134Z" transform="translate(-22.95 -17.13)"/><path class="cls-9" d="M216.12,142.28a.88.88,0,0,1-.42-.26.9.9,0,0,1,.05-1.27l6.23-5.7a.9.9,0,0,1,1.27.06.89.89,0,0,1-.06,1.26L217,142.08A.91.91,0,0,1,216.12,142.28Z" transform="translate(-22.95 -17.13)"/><path class="cls-13" d="M262.59,141a31.34,31.34,0,1,1-49.92-32.89h0c10.6-3.24,24.46,0,34.6,6.08A31.33,31.33,0,0,1,262.59,141Z" transform="translate(-22.95 -17.13)"/><path class="cls-9" d="M315.24,155.61A31.34,31.34,0,1,0,375,153.17s0,0,0,0c-7.41-8.24-21-12.57-32.78-12.63A31.33,31.33,0,0,0,315.24,155.61Z" transform="translate(-22.95 -17.13)"/><g class="cls-14"><circle class="cls-11" cx="323.26" cy="144.09" r="25.97"/></g><path class="cls-13" d="M315.24,155.61A31.34,31.34,0,1,0,375,153.17s0,0,0,0c-7.41-8.24-21-12.57-32.78-12.63A31.33,31.33,0,0,0,315.24,155.61Z" transform="translate(-22.95 -17.13)"/><path class="cls-9" d="M324.49,165.41a.9.9,0,0,1,.06-1.74l9.83-1.92a.89.89,0,0,1,1.05.71.9.9,0,0,1-.71,1l-9.82,1.91A.94.94,0,0,1,324.49,165.41Z" transform="translate(-22.95 -17.13)"/><path class="cls-9" d="M329.16,173.68a.93.93,0,0,1-.42-.26.9.9,0,0,1,.05-1.27l6.24-5.7a.89.89,0,0,1,1.26.05.9.9,0,0,1-.06,1.27l-6.23,5.7A.87.87,0,0,1,329.16,173.68Z" transform="translate(-22.95 -17.13)"/><circle class="cls-12" cx="333.62" cy="138.14" r="6.72"/><circle class="cls-12" cx="325.19" cy="145.09" r="2.24"/><path class="cls-15" d="M225,175.11h0l-27.41-8.21a1.55,1.55,0,1,1,.89-3l27.41,8.2a1.56,1.56,0,0,1-.86,3Z" transform="translate(-22.95 -17.13)"/><path class="cls-15" d="M196.14,187.54a1.55,1.55,0,0,1,.19-3l28.31-4.18a1.55,1.55,0,1,1,.45,3.07l-28.3,4.18A1.57,1.57,0,0,1,196.14,187.54Z" transform="translate(-22.95 -17.13)"/><path class="cls-15" d="M330.74,204h0l27.72,7.11a1.55,1.55,0,0,0,.77-3L331.54,201a1.55,1.55,0,0,0-.8,3Z" transform="translate(-22.95 -17.13)"/><path class="cls-15" d="M349.09,229.58a1.56,1.56,0,0,0,1.4-2.7L328.4,208.71a1.55,1.55,0,1,0-2,2.39l22.1,18.18A1.65,1.65,0,0,0,349.09,229.58Z" transform="translate(-22.95 -17.13)"/><path class="cls-16" d="M296.05,200.21c-5.73,13.22-17.91,25.6-27.64,22.89s-13.79-19.61-11.87-33.9a15.33,15.33,0,0,0,1.89,1.23,4.32,4.32,0,0,0,.43.22,15.87,15.87,0,0,0,3.23,1.28c5.63,1.57,11.28,0,14.63-3.45l2.53.7c1.06,4.73,5.11,8.94,10.75,10.5a16.38,16.38,0,0,0,3.88.6l.46,0A16,16,0,0,0,296.05,200.21Z" transform="translate(-22.95 -17.13)"/><path class="cls-17" d="M267.72,225.6c-11.28-3.13-15.84-21.14-13.75-36.75a2.6,2.6,0,0,1,4.14-1.71,11.3,11.3,0,0,0,1.56,1l.18.1.23.11a12.88,12.88,0,0,0,2.7,1.07c4.53,1.26,9.27.18,12.07-2.75a2.56,2.56,0,0,1,2.56-.7l2.53.7a2.58,2.58,0,0,1,1.83,1.93c.89,3.95,4.39,7.31,8.92,8.57a12.9,12.9,0,0,0,3.26.5h.36a12.11,12.11,0,0,0,1.45-.07,2.59,2.59,0,0,1,2.66,3.6C292.17,215.67,279,228.72,267.72,225.6Zm-9-32.14c-.65,12.18,3,25.1,10.37,27.15s17.16-7.13,22.87-17.89a19,19,0,0,1-2.66-.55,17.76,17.76,0,0,1-12.07-10.67,17.81,17.81,0,0,1-15.84,2.92A16.93,16.93,0,0,1,258.73,193.46Z" transform="translate(-22.95 -17.13)"/><path class="cls-17" d="M308,189.11a2.58,2.58,0,0,0-3.19,1.8c-1,3.65-4.54,6.29-9,6.73a12.11,12.11,0,0,1-1.45.07H294a12.9,12.9,0,0,1-3.26-.5c-4.53-1.26-8-4.62-8.92-8.57a8.33,8.33,0,0,1-.09-3.29,7,7,0,0,1,.18-.79L286,169.59a2.59,2.59,0,1,0-5-1.39l-4.16,15c-.07.27-.16.51-.25.76a8.26,8.26,0,0,1-1.77,2.78c-2.8,2.93-7.54,4-12.07,2.75a12.88,12.88,0,0,1-2.7-1.07l-.23-.11-.18-.1a11.15,11.15,0,0,1-1.57-1c-3.53-2.66-5.16-6.72-4.15-10.34a2.59,2.59,0,1,0-5-1.39c-1.57,5.68.79,11.9,6,15.85a17.32,17.32,0,0,0,2.16,1.41,6,6,0,0,0,.62.32,18.34,18.34,0,0,0,3.66,1.44,17.74,17.74,0,0,0,15.84-2.93,17.78,17.78,0,0,0,12.07,10.68,18.14,18.14,0,0,0,4.44.69,4,4,0,0,0,.59,0,19,19,0,0,0,2-.09c6.59-.65,11.88-4.77,13.47-10.5A2.59,2.59,0,0,0,308,189.11Z" transform="translate(-22.95 -17.13)"/><path class="cls-17" d="M278.78,176.25l-6.56-10.89a3.79,3.79,0,0,1,.73-4.78l3.53-3.13a3.8,3.8,0,0,1,3.51-.81l12.86,3.57a3.79,3.79,0,0,1,2.59,2.51l1.41,4.5a3.77,3.77,0,0,1-1.83,4.47l-11.24,5.95A3.77,3.77,0,0,1,278.78,176.25Z" transform="translate(-22.95 -17.13)"/><path class="cls-17" d="M280.32,180.38a6.5,6.5,0,0,1-3.82-2.9h0l-6.44-10.7a6.48,6.48,0,0,1,1.26-8.21l3.39-3a6.47,6.47,0,0,1,6-1.4l12.72,3.53a6.48,6.48,0,0,1,4.46,4.31l1.36,4.33a6.48,6.48,0,0,1-3.16,7.68l-11,5.84A6.47,6.47,0,0,1,280.32,180.38Zm.61-5.57a1.32,1.32,0,0,0,1.75.48l11-5.84a1.32,1.32,0,0,0,.64-1.56L293,163.56a1.29,1.29,0,0,0-.9-.87l-12.72-3.54a1.32,1.32,0,0,0-1.23.29l-3.39,3a1.32,1.32,0,0,0-.26,1.67Z" transform="translate(-22.95 -17.13)"/><path class="cls-18" d="M250.73,32.56c-8.95-2.49-23.1,15.51-25.54,23.18-1.37,4.3,5.78,11.9,14.55,14.47,9.29,2.72,20.31.15,21.25-4.53C262.79,56.79,259.68,35.05,250.73,32.56Z" transform="translate(-22.95 -17.13)"/><path class="cls-18" d="M379.31,68.27c-8.95-2.48-23.09,15.51-25.54,23.18-1.37,4.3,5.78,11.91,14.56,14.48,9.29,2.72,20.3.15,21.25-4.54C391.37,92.5,388.26,70.76,379.31,68.27Z" transform="translate(-22.95 -17.13)"/><path class="cls-12" d="M229.21,126.66a6.48,6.48,0,0,0-1.09-1.07,7.35,7.35,0,0,0,1.48-.34,6.84,6.84,0,0,0,1.07-1.1,7.41,7.41,0,0,0,.34,1.49,7.14,7.14,0,0,0,1.1,1.06,6.93,6.93,0,0,0-1.49.35,7.18,7.18,0,0,0-1.06,1.09A6.87,6.87,0,0,0,229.21,126.66Z" transform="translate(-22.95 -17.13)"/><path class="cls-12" d="M342.84,158.22a6.48,6.48,0,0,0-1.09-1.07,7.35,7.35,0,0,0,1.48-.34,6.84,6.84,0,0,0,1.07-1.1,7.41,7.41,0,0,0,.34,1.49,7.14,7.14,0,0,0,1.1,1.06,6.93,6.93,0,0,0-1.49.35,7.18,7.18,0,0,0-1.06,1.09A6.87,6.87,0,0,0,342.84,158.22Z" transform="translate(-22.95 -17.13)"/><path class="cls-19" d="M217.14,343a25.64,25.64,0,0,1,46.93-.89,28.44,28.44,0,1,0-48.43,15.74A25.48,25.48,0,0,1,217.14,343Z" transform="translate(-22.95 -17.13)"/><circle class="cls-19" cx="238.07" cy="329.18" r="1.13"/><circle class="cls-19" cx="235.37" cy="334.7" r="1.13"/><circle class="cls-19" cx="231.51" cy="339.47" r="1.13"/><circle class="cls-19" cx="226.69" cy="343.27" r="1.13"/><circle class="cls-19" cx="221.13" cy="345.89" r="1.13"/><circle class="cls-19" cx="215.13" cy="347.2" r="1.13"/><circle class="cls-19" cx="208.99" cy="347.13" r="1.13"/><circle class="cls-19" cx="203.02" cy="345.7" r="1.13"/><circle class="cls-19" cx="197.52" cy="342.97" r="1.13"/></g></svg>