<svg id="Layer_2" data-name="Layer 2" xmlns="http://www.w3.org/2000/svg" viewBox="0 0 272.63 288.94"><defs><style>.cls-1{fill:#d275f9;}</style></defs><title>diniinabottleicon</title><path class="cls-1" d="M95.15,135.24a102.33,102.33,0,0,0,161.38,121c10.3-9.74,18.15-21.8,22.12-34,4.52-13.87,3.92-27.43-1.73-39.19-.39-.83-1.6-3.35-4.35-3.59-3-.29-4.77,2.14-7.4,5.79-4.91,6.81-13.64,18.89-34.43,20.54A35,35,0,0,0,237,191.55c1.13-6.48-.33-11.89-3.83-14.12-2.54-1.62-5.71-1.36-8.7.72a50.88,50.88,0,0,1-17.09,7.94,39.58,39.58,0,0,0,14.57-14.77,45.43,45.43,0,0,0,5.76-18.09c3.15-36.5-27.34-55.7-56.16-70.83C144,67.94,136.91,36.28,136.84,36l-1.14-5.43-4.27,3.54c-18.76,15.57-22.14,34.5-21.66,47.65a68.19,68.19,0,0,0,.91,8.93c-11.73-3.81-28.36-1-29.18-.9L79,90.19l-.22,2.57C76.57,118.1,89.33,130.81,95.15,135.24Zm20.21-28.6a3.34,3.34,0,0,0,6-2.87,62.91,62.91,0,0,1-5-22.5c-.49-15.09,4.67-28,15.34-38.52,3.24,10,13,33.17,36.6,45.57,26.93,14.14,55.42,31.94,52.6,64.37v.1a39.11,39.11,0,0,1-4.9,15.22c-5.86,10.28-15.62,16.13-29,17.38a40.42,40.42,0,0,1-5-.54l-.2-.06a3.41,3.41,0,0,0-.88-.13c-5.57-1-13.69-3.57-19.17-9.67-4.73-5.26-6.71-12.4-5.91-21.23l0-.2c0-.93.9-22.64,24.4-22.72.87.09,8.61,1,13,6.35,2.42,3,3.35,6.92,2.77,11.75,0,.05-.74,5.9-4.52,8.4-2.06,1.37-4.85,1.57-8.31.6a7.31,7.31,0,0,1-3.17-3.59c-.64-1.75-.37-3.87.78-6.31a3.28,3.28,0,0,0,.14-2.55,3.35,3.35,0,0,0-6.18-.32c-1.95,4.11-2.3,8-1,11.46a13.94,13.94,0,0,0,6.85,7.48l.42.15c5.59,1.67,10.39,1.2,14.24-1.37,6.43-4.3,7.39-12.83,7.42-13.19.82-6.67-.61-12.3-4.23-16.74-6.37-7.8-17.22-8.76-17.7-8.8h-.25c-29.32,0-31.2,27.89-31.26,29.06-1,10.74,1.59,19.59,7.62,26.28,7.1,7.88,17.31,10.83,23.86,11.93,17.29,5.13,32.39,2.66,47.42-7.78a2.34,2.34,0,0,1,1.28-.57c.64.41,1.59,3.07.84,7.33-1.77,10.14-11.78,23.77-34.17,28.83a3.33,3.33,0,0,0-2.52,4,3.36,3.36,0,0,0,3.26,2.61,3.05,3.05,0,0,0,.74-.08c11.8-2.66,20.6-7.44,26.87-13.07,28.7.51,40.39-15.64,46-23.49.35-.47.72-1,1.09-1.48,9.4,22.18-3.08,47.9-19.75,63.66a95.64,95.64,0,0,1-149.49-115.6h0s0-.11.07-.16a4.32,4.32,0,0,0,.19-.45,1.62,1.62,0,0,0,0-.19,2.66,2.66,0,0,0,.09-.46c0-.05,0-.09,0-.14a4.34,4.34,0,0,0,0-.51l0-.14a3,3,0,0,0-.09-.49,3.37,3.37,0,0,0-1-1.59l0,0a3.58,3.58,0,0,0-.55-.38h0c-.17-.09-16.94-9.66-15.89-35.25,3.94-.49,19.81-2.06,27.13,2.76l.17.09A54.57,54.57,0,0,0,115.36,106.64Z" transform="translate(-47.91 -30.53)"/><path class="cls-1" d="M184.23,46.84a3.35,3.35,0,1,0,0,6.69A129.77,129.77,0,0,1,313.85,183.15c0,71.48-58.15,129.63-129.62,129.63A129.77,129.77,0,0,1,54.6,183.15a128.16,128.16,0,0,1,14-58.61,3.35,3.35,0,0,0-1.47-4.49,3.29,3.29,0,0,0-2.55-.2,3.37,3.37,0,0,0-2,1.66,135,135,0,0,0-14.7,61.64c0,75.17,61.15,136.32,136.32,136.32s136.31-61.15,136.31-136.32S259.39,46.84,184.23,46.84Z" transform="translate(-47.91 -30.53)"/></svg>